<svg width="54" height="60" viewBox="0 0 54 60" fill="none" xmlns="http://www.w3.org/2000/svg">
<path d="M3 14.1133H8.30667H50.76" stroke="black" stroke-width="5.30667" stroke-linecap="round" stroke-linejoin="round"/>
<path d="M45.4533 14.1133V51.26C45.4533 52.6674 44.8942 54.0172 43.8991 55.0124C42.9039 56.0076 41.5541 56.5667 40.1467 56.5667H13.6133C12.2059 56.5667 10.8562 56.0076 9.86096 55.0124C8.86576 54.0172 8.30667 52.6674 8.30667 51.26V14.1133M16.2667 14.1133V8.80667C16.2667 7.39925 16.8258 6.04948 17.821 5.05429C18.8162 4.05909 20.1659 3.5 21.5733 3.5H32.1867C33.5941 3.5 34.9439 4.05909 35.9391 5.05429C36.9342 6.04948 37.4933 7.39925 37.4933 8.80667V14.1133" stroke="black" stroke-width="5.30667" stroke-linecap="round" stroke-linejoin="round"/>
<path d="M21.5733 27.38V43.3" stroke="black" stroke-width="5.30667" stroke-linecap="round" stroke-linejoin="round"/>
<path d="M32.1867 27.38V43.3" stroke="black" stroke-width="5.30667" stroke-linecap="round" stroke-linejoin="round"/>
</svg>
